<?xml version="1.0" standalone="no"?><svg xmlns="http://www.w3.org/2000/svg" viewBox="0 0 1440 320"><path fill="#00bfa6" fill-opacity="1" d="M0,160L20,154.7C40,149,80,139,120,138.7C160,139,200,149,240,165.3C280,181,320,203,360,218.7C400,235,440,245,480,213.3C520,181,560,107,600,69.3C640,32,680,32,720,53.3C760,75,800,117,840,128C880,139,920,117,960,101.3C1000,85,1040,75,1080,85.3C1120,96,1160,128,1200,165.3C1240,203,1280,245,1320,234.7C1360,224,1400,160,1420,128L1440,96L1440,320L1420,320C1400,320,1360,320,1320,320C1280,320,1240,320,1200,320C1160,320,1120,320,1080,320C1040,320,1000,320,960,320C920,320,880,320,840,320C800,320,760,320,720,320C680,320,640,320,600,320C560,320,520,320,480,320C440,320,400,320,360,320C320,320,280,320,240,320C200,320,160,320,120,320C80,320,40,320,20,320L0,320Z"></path></svg>